<svg width="26" height="26" viewBox="0 0 26 26" fill="none" xmlns="http://www.w3.org/2000/svg">
<path d="M6.47446 3.8323C6.31305 3.67125 6.09435 3.58081 5.86634 3.58081C5.63833 3.58081 5.41963 3.67125 5.25821 3.8323L3.83284 5.25855C3.67206 5.41992 3.58179 5.63844 3.58179 5.86624C3.58179 6.09403 3.67206 6.31255 3.83284 6.47392L4.61771 7.2588C5.28129 6.19093 6.14075 5.25814 7.15084 4.50955L6.47446 3.8323ZM20.9977 18.3564C20.2491 19.3665 19.3163 20.226 18.2485 20.8895L19.0342 21.6744C19.1956 21.8349 19.4139 21.925 19.6415 21.925C19.869 21.925 20.0874 21.8349 20.2487 21.6744L21.675 20.2482C21.8355 20.0868 21.9256 19.8685 21.9256 19.6409C21.9256 19.4133 21.8355 19.195 21.675 19.0337L20.9977 18.3564ZM12.3895 9.2153C12.4103 9.28436 12.4174 9.35685 12.4102 9.42864C12.403 9.50043 12.3818 9.57009 12.3476 9.63365C12.3135 9.69721 12.2672 9.75341 12.2113 9.79903C12.1554 9.84466 12.0911 9.87882 12.022 9.89955L10.0156 10.4998C9.87589 10.5416 9.72531 10.5261 9.59699 10.4569C9.46867 10.3876 9.37311 10.2703 9.33134 10.1305C9.28957 9.99085 9.305 9.84027 9.37425 9.71195C9.4435 9.58363 9.56089 9.48807 9.70059 9.4463L11.7061 8.84605C11.9966 8.75855 12.302 8.9248 12.3895 9.2153ZM15.9831 11.1158C16.1268 11.1394 16.2552 11.219 16.3405 11.337C16.4257 11.455 16.4608 11.602 16.4381 11.7458L16.1038 13.8134C16.0806 13.9573 16.0012 14.0861 15.8831 14.1714C15.7649 14.2567 15.6177 14.2916 15.4738 14.2684C15.33 14.2452 15.2012 14.1658 15.1159 14.0477C15.0305 13.9295 14.9956 13.7823 15.0188 13.6384L15.3531 11.5708C15.3767 11.4271 15.4562 11.2986 15.5743 11.2134C15.6923 11.1282 15.8393 11.0931 15.9831 11.1158ZM12.1865 16.3815C12.2378 16.4323 12.2986 16.4725 12.3654 16.4998C12.4322 16.5271 12.5038 16.541 12.576 16.5406C12.6482 16.5402 12.7196 16.5256 12.7862 16.4977C12.8527 16.4697 12.9131 16.4289 12.9639 16.3776C13.0147 16.3263 13.0549 16.2655 13.0822 16.1987C13.1095 16.1318 13.1233 16.0603 13.1229 15.9881C13.1226 15.9159 13.108 15.8445 13.08 15.7779C13.0521 15.7114 13.0113 15.651 12.96 15.6002L11.4725 14.1267C11.3684 14.0269 11.2293 13.9719 11.0851 13.9737C10.9409 13.9756 10.8032 14.034 10.7017 14.1364C10.6003 14.2388 10.5431 14.377 10.5426 14.5212C10.542 14.6654 10.5982 14.804 10.699 14.9072L12.1865 16.3815ZM14.7765 9.48917C14.7235 9.54638 14.6595 9.5923 14.5884 9.62419C14.5172 9.65608 14.4404 9.67328 14.3624 9.67475C14.2845 9.67623 14.207 9.66195 14.1347 9.63278C14.0624 9.60361 13.9967 9.56014 13.9416 9.50498C13.8865 9.44982 13.8431 9.3841 13.814 9.31177C13.785 9.23944 13.7708 9.16197 13.7723 9.08402C13.7739 9.00607 13.7912 8.92924 13.8231 8.85813C13.8551 8.78701 13.9011 8.72309 13.9583 8.67017C14.0683 8.56856 14.2133 8.51348 14.363 8.51647C14.5127 8.51947 14.6554 8.58031 14.7613 8.68623C14.8671 8.79216 14.9278 8.93494 14.9306 9.08464C14.9334 9.23434 14.8782 9.37932 14.7765 9.48917ZM15.8895 16.5233C15.8361 16.579 15.7722 16.6234 15.7014 16.654C15.6307 16.6847 15.5545 16.7009 15.4774 16.7017C15.4003 16.7025 15.3238 16.6879 15.2525 16.6588C15.1811 16.6297 15.1162 16.5866 15.0617 16.5321C15.0072 16.4775 14.9641 16.4127 14.935 16.3413C14.9059 16.2699 14.8913 16.1934 14.8921 16.1163C14.8929 16.0392 14.9091 15.9631 14.9397 15.8923C14.9704 15.8216 15.0148 15.7576 15.0705 15.7043C15.1804 15.6027 15.3255 15.5476 15.4752 15.5506C15.6249 15.5536 15.7676 15.6144 15.8734 15.7204C15.9792 15.8263 16.0399 15.9691 16.0427 16.1188C16.0456 16.2685 15.9912 16.4134 15.8895 16.5233ZM8.15884 14.0462C8.21175 14.1034 8.27568 14.1494 8.34679 14.1814C8.4179 14.2134 8.49474 14.2306 8.57269 14.2322C8.65064 14.2338 8.7281 14.2196 8.80043 14.1905C8.87277 14.1614 8.93848 14.118 8.99364 14.0629C9.0488 14.0078 9.09227 13.9421 9.12144 13.8698C9.15062 13.7975 9.16489 13.72 9.16342 13.6421C9.16194 13.5641 9.14474 13.4873 9.11285 13.4161C9.08097 13.345 9.03504 13.281 8.97784 13.228C8.86798 13.1263 8.723 13.0711 8.57331 13.0739C8.42361 13.0767 8.28083 13.1374 8.1749 13.2432C8.06897 13.3491 8.00813 13.4918 8.00514 13.6415C8.00214 13.7912 8.05723 13.9362 8.15884 14.0462Z" fill="black"/>
<path d="M18.3386 17.7719C16.9325 19.178 15.0254 19.9679 13.0369 19.9679C11.0484 19.9679 9.14139 19.178 7.73531 17.7719C6.32923 16.3659 5.53931 14.4588 5.53931 12.4703C5.53931 10.4818 6.32923 8.57476 7.73531 7.16868C9.14722 5.79227 11.0445 5.02752 13.0163 5.04007C14.9881 5.05262 16.8755 5.84147 18.2698 7.23574C19.664 8.63001 20.4529 10.5174 20.4654 12.4892C20.478 14.461 19.7132 16.3583 18.3368 17.7702M13.8078 18.5839C14.2322 18.6531 14.6531 18.7204 15.0346 18.6014C15.4248 18.4746 15.7258 18.1683 16.0251 17.8621C16.2071 17.6766 16.3882 17.4911 16.5894 17.3467C16.7881 17.2049 17.0164 17.0903 17.2457 16.9766C17.6307 16.7841 18.0174 16.5916 18.2607 16.2617C18.4996 15.9379 18.5626 15.5144 18.6264 15.0892C18.6641 14.8319 18.7026 14.5747 18.7796 14.3384C18.8522 14.1153 18.9677 13.8957 19.0841 13.6734C19.2844 13.2911 19.4892 12.9008 19.4892 12.4686C19.4892 12.0459 19.2853 11.6539 19.0849 11.2689C18.9645 11.0548 18.8624 10.8309 18.7796 10.5996C18.7026 10.3624 18.6632 10.1043 18.6238 9.84706C18.5591 9.42443 18.4943 9.00181 18.2616 8.67456C18.0209 8.34031 17.6316 8.14956 17.2448 7.95706C17.0168 7.85277 16.7976 7.73016 16.5894 7.59043C16.3959 7.43856 16.2145 7.2718 16.0469 7.09168C15.7407 6.78018 15.4318 6.46431 15.0346 6.33481C14.6583 6.21231 14.2427 6.28143 13.8183 6.35143C13.56 6.40099 13.2981 6.42967 13.0352 6.43718C12.7814 6.43718 12.5216 6.39518 12.2626 6.35318C11.8382 6.28493 11.4173 6.21668 11.0358 6.33568C10.6456 6.46256 10.3446 6.76968 10.0453 7.07506C9.86331 7.26056 9.68219 7.44606 9.48094 7.59131C9.27217 7.73134 9.05274 7.8548 8.82469 7.96056C8.43969 8.15306 8.05294 8.34556 7.80969 8.67543C7.57081 8.99918 7.50781 9.42268 7.44394 9.84793C7.41374 10.1023 7.36252 10.3537 7.29081 10.5996C7.20801 10.829 7.10615 11.0512 6.98631 11.2637C6.78506 11.6461 6.58119 12.0372 6.58119 12.4686C6.58119 12.8912 6.78506 13.2832 6.98544 13.6682C7.10269 13.8931 7.21731 14.1144 7.29081 14.3384C7.36781 14.5747 7.40719 14.8328 7.44656 15.0901C7.51131 15.5136 7.57606 15.9353 7.80881 16.2626C8.04944 16.5968 8.43881 16.7884 8.82556 16.9801C9.05481 17.0921 9.28319 17.2049 9.48094 17.3476C9.67081 17.4876 9.84669 17.6661 10.0234 17.8463C10.3297 18.1569 10.6386 18.4728 11.0358 18.6023C11.4226 18.7248 11.8434 18.6548 12.2669 18.5848C12.5242 18.5428 12.7832 18.4999 13.0352 18.4999C13.2889 18.4999 13.5488 18.5419 13.8078 18.5839Z" fill="black"/>
<path d="M2.72588 1.2992C3.55926 0.467258 4.6887 0 5.86626 0C7.04382 0 8.17326 0.467258 9.00663 1.2992L9.18163 1.4742C13.2723 0.0444482 18.0025 0.961448 21.2741 4.23307C24.5458 7.5047 25.4628 12.2358 24.033 16.3256L24.208 16.5006C25.04 17.334 25.5072 18.4634 25.5072 19.6409C25.5072 20.8185 25.04 21.9479 24.208 22.7813L22.7818 24.2076C21.9483 25.0398 20.8187 25.5072 19.6409 25.5072C18.4632 25.5072 17.3335 25.0398 16.5001 24.2076L16.025 23.7316C14.0529 24.2551 11.9778 24.2514 10.0075 23.7206C8.03731 23.1899 6.24109 22.1509 4.79876 20.7076C3.35575 19.2652 2.31696 17.4691 1.7864 15.4991C1.25584 13.529 1.25213 11.4541 1.77564 9.4822L1.29963 9.00707C0.467428 8.17366 0 7.04403 0 5.86626C0 4.68849 0.467428 3.55886 1.29963 2.72545L2.72588 1.2992ZM7.76938 2.53732C7.26418 2.03346 6.57978 1.7505 5.86626 1.7505C5.15274 1.7505 4.46834 2.03346 3.96313 2.53732L2.53688 3.96357C2.03302 4.46878 1.75006 5.15318 1.75006 5.8667C1.75006 6.58022 2.03302 7.26462 2.53688 7.76982L3.76451 8.99657C3.09865 10.7764 2.95884 12.7102 3.36176 14.5673C3.76468 16.4244 4.69331 18.1264 6.03688 19.4703C7.38076 20.8139 9.08276 21.7425 10.9399 22.1454C12.797 22.5484 14.7308 22.4086 16.5106 21.7427L17.7383 22.9703C18.2435 23.4742 18.9279 23.7571 19.6414 23.7571C20.3549 23.7571 21.0393 23.4742 21.5445 22.9703L22.9708 21.5441C23.4746 21.0389 23.7576 20.3545 23.7576 19.6409C23.7576 18.9274 23.4746 18.243 22.9708 17.7378L21.9715 16.7394C23.7303 13.0592 23.0845 8.51795 20.0369 5.47032C16.9893 2.4227 12.448 1.77782 8.76863 3.5357L7.76938 2.53732Z" fill="black"/>
</svg>
